<svg xmlns="http://www.w3.org/2000/svg" viewBox="0 0 1351.74 609.55"><defs><style>.cls-1{stroke:#000;stroke-miterlimit:10;}</style></defs><g id="Layer_2" data-name="Layer 2"><g id="Layer_1-2" data-name="Layer 1"><path class="cls-1" d="M102.84,202.11,138.67,190c18.43-1.44,22.75-3.74,22.75-20.16V32.76c0-16.71-4.32-18.72-22.75-20.16L102.84.5h132c72.86,0,111.46,37.44,111.46,100.8s-39.46,100.81-112,100.81ZM221,20.08c-5.18,0-8.64,3.46-8.64,8.64V173.88c0,5.19,3.46,8.64,8.64,8.64h13.25c36,0,57.32-22.17,57.32-81.22s-20.74-81.22-56.74-81.22Z"/><path class="cls-1" d="M408.24,128.09a67.13,67.13,0,0,0-.29,7.49c0,34,10.37,51.55,35.71,51.55,16.71,0,32.26-11.52,42.34-32l15.84,8.93c-12.38,25.35-30.53,42.34-63.65,42.34-47.52,0-75.75-29.67-75.75-70.85,0-40.9,28.81-70.56,71.14-70.56,41.48,0,64.23,24.19,64.23,63.07Zm47.81-18.43c0-17-8.64-27.36-21.6-27.36-15.84,0-22.76,9.21-25.35,27.36Z"/><path class="cls-1" d="M642.38,158.91c0,30.24-26.2,47.52-59.61,47.52-17.57,0-35.72-6.34-44.65-12.38l-3.45,8.06H523.72l-10.36-47.24,9.79-2.59c15,24.48,38.3,37.16,58.18,37.16,11.8,0,20.73-5.48,20.73-15.56,0-11.23-14.11-15.84-31.68-21-23.33-7.2-52.42-16.71-52.42-45.22C518,82.58,542.73,65,573.55,65c19.3,0,30.53,5.76,39.17,11.8l3.46-7.49h10.65l8.64,42.06-10.65,3.16c-12.39-21.89-31.11-33.41-46.66-33.41-11.23,0-17.28,5.48-17.28,13.25,0,10.37,12.67,14.69,29.09,19.59C616.46,122.33,642.38,131.26,642.38,158.91Z"/><path class="cls-1" d="M742.6,101.59c-2-12.09-6-19.29-17-19.29-19.58,0-25.06,19.29-25.06,53.28s11.81,51.55,35.72,51.55c17.28,0,29.09-10.94,38-32l15.85,8.93c-11.53,26.21-29.38,42.34-61.35,42.34-44.93,0-73.73-29.67-73.73-70.85,0-40.9,28.8-70.56,70.56-70.56,33.41,0,56.74,15.26,56.74,35.42,0,12.67-8.93,19.58-19.3,19.58S744.62,114,742.6,101.59Z"/><path class="cls-1" d="M845.13,128.09a67.13,67.13,0,0,0-.29,7.49c0,34,10.37,51.55,35.71,51.55,16.71,0,32.26-11.52,42.34-32l15.84,8.93c-12.38,25.35-30.53,42.34-63.65,42.34-47.52,0-75.75-29.67-75.75-70.85,0-40.9,28.81-70.56,71.14-70.56C912,65,934.7,89.21,934.7,128.09Zm47.81-18.43c0-17-8.64-27.36-21.6-27.36-15.84,0-22.76,9.21-25.35,27.36Z"/><path class="cls-1" d="M1039,202.11V190c13.25-1.44,16.13-4,16.13-12.67V108.79c0-13.82-8.06-19.29-18.72-19.29-9.5,0-17.86,3.16-25.92,8.64v79.2c0,8.64,2.88,11.23,16.13,12.67v12.1H950.24V190c13-1.44,16.13-4,16.13-12.67V109.08c0-6-2-8.64-7.2-8.64h-8.93V89.21L994.31,65h16.13V79.13C1022,71.64,1039,65,1053.64,65c21.31,0,45.51,7.48,45.51,44.92v67.4c0,8.64,3.17,11.23,16.13,12.67v12.1Z"/><path class="cls-1" d="M1189.75,201h0c-27.36,0-44.36-9.22-44.36-39.17V82.58h-15.84V71.35c24.2-8.93,37.73-25.34,43.78-50.69h16.42V64.15l88.42.87-56.74,17.56h-31.68v79.21c0,14.4,6,19.58,15.55,19.58,4.9,0,72.87,20.74,72.87,20.74Z"/><path class="cls-1" d="M535.6,364.25v-6.8c7.29-.81,9.07-2.27,9.07-7.13v-38.4c0-3.4-1.13-4.86-4-4.86h-5v-6.32l24.79-13.61h9.07v63.19c0,4.86,1.62,6.32,9.07,7.13v6.8Zm36.45-100.61c0,6.64-5.35,13.29-14.42,13.29-9.4,0-14.42-6.65-14.42-13.29,0-6.8,5-13.61,14.42-13.61C566.7,250,572.05,256.84,572.05,263.64Z"/><path class="cls-1" d="M634.58,364.25v-6.8c7.45-.81,9.08-2.27,9.08-7.13V311.76c0-7.78-4.54-10.86-10.54-10.86a25.46,25.46,0,0,0-14.58,4.86v44.56c0,4.86,1.62,6.32,9.08,7.13v6.8H584.68v-6.8c7.29-.81,9.07-2.27,9.07-7.13v-38.4c0-3.4-1.13-4.86-4-4.86h-5v-6.32l24.79-13.61h9.07v7.94c6.48-4.21,16-7.94,24.3-7.94,12,0,25.6,4.21,25.6,25.28v37.91c0,4.86,1.78,6.32,9.07,7.13v6.8Z"/><path class="cls-1" d="M734.37,363.77a65.6,65.6,0,0,1-17.82,2.75c-15.39,0-24.95-5.18-24.95-22V299.93h-8.91v-6.32c13.61-5,21.22-14.25,24.63-28.51h9.23v24.46h17.82v10.37H716.55v44.56c0,8.1,3.4,11,8.75,11a28.17,28.17,0,0,0,9.07-1.62Z"/><path class="cls-1" d="M825.58,326.83c0,23.16-16.36,39.85-42.12,39.85S741.33,350,741.33,326.83c0-23,16.37-39.7,42.13-39.7S825.58,303.82,825.58,326.83Zm-25.6,0c0-19.12-4.05-30-16.52-30s-16.53,10.86-16.53,30S771,357,783.46,357,800,345.94,800,326.83Z"/><path class="cls-1" d="M3,604.73l35.84-12.1c18.43-1.44,22.75-3.74,22.75-20.16V435.38c0-16.71-4.32-18.73-22.75-20.16L3,403.12h132c72.87,0,111.47,37.44,111.47,100.8s-39.46,100.81-112,100.81Zm118.21-182c-5.18,0-8.64,3.46-8.64,8.64V576.5c0,5.19,3.46,8.64,8.64,8.64H134.5c36,0,57.31-22.17,57.31-81.22s-20.73-81.22-56.74-81.22Z"/><path class="cls-1" d="M301.53,608.47c-23.61,0-38.88-13.25-38.88-32.83,0-34.27,43.2-45.8,84.39-53.28V508.82c0-17.86-2.59-24.19-15.27-24.19-10.94,0-34.45,13.9-21.31,19.29,21.6,8.87-38.88-.57-38.88-.57h0c0-21.32,27.07-35.72,64.8-35.72,29.38,0,55,10.95,55,43.21v66.53c0,7.77,2.88,10.94,7.78,10.94a18.1,18.1,0,0,0,8.35-2V601c-8.06,4.9-16.7,7.2-29.66,7.2-15,0-26.79-4.32-30-17.85C335.81,599.54,319.39,608.47,301.53,608.47ZM347,539.06c-23.33,4.61-38.88,11.52-38.88,27.36,0,10.66,7.2,15.56,15.84,15.56s16.13-3.46,23-8.36Z"/><path class="cls-1" d="M495.2,499.16c-5.18,0-10.66,2.31-15,8.07v73.44c0,8.64,2.88,11.23,16.13,12.68v12.09H420V593.35c13-1.45,16.13-4,16.13-12.68V512.41c0-6-2-8.64-7.2-8.64H420V492.54l44.07-24.19h16.12v17c8.64-9.79,73-7.3,73-7.3s-58,6.72-58,21.12Z"/><path class="cls-1" d="M543.21,604.73v-12.1c13-1.44,16.13-4,16.13-12.67V442.86c0-6.05-2-8.64-7.2-8.64h-8.93V423l44.07-24.19h16.13V533l26.49-25.92c12.1-11.23,12.39-21.6-7.77-23V472l143.94-16.87-69.06,29c-14.11,1.44-20.16,4.61-34.56,18.14l-12.1,11.52,41.76,61.35c9.51,13.54,14.12,16.13,21.89,17.57v12.1H630.19v-12.1c14.4-1.44,16.71-8.64,10.66-17.57L618.67,544l-15.26,14.4V580c0,8.64,2.88,11.23,16.12,12.67v12.1Z"/><path class="cls-1" d="M822.57,604.73v-12.1c13.25-1.44,16.13-4,16.13-12.67V511.41c0-13.82-8.06-19.3-18.72-19.3-9.51,0-17.86,3.17-25.92,8.65V580c0,8.64,2.88,11.23,16.13,12.67v12.1H733.86v-12.1c13-1.44,16.13-4,16.13-12.67V511.7c0-6.05-2-8.64-7.2-8.64l-21.86-1.3,12.93-9.93,44.07-24.2h16.13v14.12c11.52-7.49,28.51-14.12,43.2-14.12,21.31,0,45.51,7.49,45.51,44.93V580c0,8.64,3.16,11.23,16.12,12.67v12.1Z"/><path class="cls-1" d="M942,530.71a67.13,67.13,0,0,0-.29,7.49c0,34,10.37,51.55,35.71,51.55,16.71,0,32.26-11.52,42.34-32l15.84,8.93c-12.38,25.35-30.53,42.34-63.65,42.34-47.52,0-75.74-29.67-75.74-70.85,0-40.9,28.8-70.57,71.13-70.57,41.48,0,64.23,24.2,64.23,63.08Zm47.81-18.43c0-17-8.64-27.36-21.6-27.36-15.84,0-22.76,9.21-25.35,27.36Z"/><path class="cls-1" d="M1176.19,561.53c0,30.24-26.21,47.52-59.62,47.52-17.57,0-35.72-6.34-44.64-12.39l-3.46,8.07h-11l-10.36-47.24,9.79-2.59c15,24.48,38.31,37.16,58.18,37.16,11.81,0,20.74-5.48,20.74-15.56,0-11.23-14.12-15.84-31.69-21-23.33-7.2-52.41-16.71-52.41-45.22,0-25.06,24.76-42.63,55.58-42.63,19.3,0,30.53,5.76,39.17,11.81L1150,472h10.65l8.65,42.05-10.66,3.17c-12.39-21.89-31.11-33.41-46.66-33.41-11.23,0-17.28,5.48-17.28,13.25,0,10.37,12.67,14.69,29.09,19.59C1150.26,525,1176.19,533.88,1176.19,561.53Z"/><path class="cls-1" d="M1316.15,561.53c0,30.24-26.21,47.52-59.62,47.52-17.56,0-35.71-6.34-44.64-12.39l-3.46,8.07h-10.94l-10.37-47.24,9.79-2.59c15,24.48,38.31,37.16,58.18,37.16,11.81,0,20.74-5.48,20.74-15.56,0-11.23-14.11-15.84-31.68-21-23.33-7.2-52.42-16.71-52.42-45.22,0-25.06,24.77-42.63,55.59-42.63h38.27l63.73-1.22-71.15,32.19h0c-12.38-21.89-10.69-14.84-26.24-14.84-11.24,0-17.29,5.48-17.29,13.25,0,10.37,12.68,14.69,29.09,19.59C1290.23,525,1316.15,533.88,1316.15,561.53Z"/></g></g></svg>